<svg xmlns="http://www.w3.org/2000/svg" xmlns:xlink="http://www.w3.org/1999/xlink" viewBox="0 0 113 39" fill="#fff" fill-rule="evenodd" stroke="#000" stroke-linecap="round" stroke-linejoin="round"><use xlink:href="#A" x=".5" y=".5"/><symbol id="A" overflow="visible"><g stroke="none" fill-rule="nonzero"><path d="M74.124 11.268c.4 0 .78-.195 1.072.097.097.4 0 .682 0 1.072v13.644a2 2 0 0 1-1.072 0v-2.24c-.877 1.17-2.047 2.047-3.4 2.34-1.657.4-3.606.097-4.97-.975-.877-.682-1.56-1.657-2.047-2.63-.682-1.657-.487-3.703.487-5.263.78-1.267 2.047-2.24 3.606-2.534 1.56-.4 3.314-.097 4.58.78.682.4 1.17.975 1.657 1.56l.097-5.847m-5.956 4.481c-2.34.487-3.996 2.924-3.703 5.263.195 1.657 1.364 3.02 2.826 3.8 1.267.487 2.73.585 3.898-.097 1.95-.78 3.216-3.02 2.826-5.165-.195-1.462-1.17-2.73-2.436-3.4-1.072-.487-2.24-.585-3.4-.4zm41.8-4.483c.292-.292.682-.097 1.072 0v14.813a2 2 0 0 1-1.072 0v-2.23c-.975 1.364-2.63 2.436-4.386 2.534-1.17.097-2.34-.195-3.314-.78-1.462-.78-2.534-2.24-2.924-3.898-.292-1.462-.097-3.02.78-4.288.877-1.364 2.24-2.34 3.8-2.63s3.216 0 4.483.877c.585.4 1.072.877 1.56 1.462v-5.857m-5.945 4.48c-1.267.292-2.436 1.17-3.12 2.34-.585.975-.682 2.144-.487 3.216.292 1.56 1.462 2.924 3.02 3.508.975.4 2.047.4 3.12.097.975-.4 1.95-.975 2.534-1.95.78-1.072 1.072-2.534.682-3.8-.292-1.462-1.364-2.63-2.63-3.314-.975-.292-2.144-.292-3.12-.097zm-7.6-4.387c.585-.195 1.17.585.78 1.072-.195.4-.877.487-1.17.097-.4-.4-.097-1.072.4-1.17zm-54 3.217c1.267-.195 2.63-.097 3.703.585.877.4 1.56 1.072 2.24 1.852v-2.34h.975c.097 3.8 0 7.602 0 11.402-.292.097-.682.097-1.072 0v-2.24c-.975 1.17-2.144 2.144-3.703 2.34-1.267.292-2.63.097-3.898-.487-1.754-.877-2.924-2.534-3.216-4.386-.097-1.072 0-2.24.487-3.216.877-1.852 2.63-3.12 4.483-3.508m.097 1.17c-1.657.4-3.12 1.657-3.606 3.4-.585 1.95.292 4.2 1.95 5.263 1.17.78 2.63.975 3.898.682 1.56-.487 2.826-1.657 3.314-3.216.682-1.852-.097-4.093-1.754-5.263-1.072-.877-2.534-1.17-3.8-.877zm11.033-.102c1.852-1.56 4.775-1.56 6.627 0 1.17.975 1.95 2.534 1.95 4.093v6.335c-.4.097-.78.097-1.072 0v-6.528c-.097-2.144-2.047-3.996-4.2-3.898-2.144 0-3.996 1.852-4.093 3.996v6.432a2 2 0 0 1-1.072 0v-6.13c-.097-1.657.585-3.216 1.852-4.288zm23.584 3.8c0-2.73 2.534-5.165 5.165-4.97 0 .292.097.682 0 .975-.292.195-.585.097-.877.195-1.17.292-2.24 1.072-2.826 2.24-.487 1.072-.4 2.24-.4 3.4v4.775c-.292.195-.682.097-1.072.097v-6.712zm9.746-4.774c1.364-.292 2.924-.097 4.093.682 1.462.877 2.63 2.34 2.924 4.093.195 1.072.097 2.24-.4 3.314-.78 1.95-2.73 3.4-4.775 3.606-1.364.097-2.826-.195-3.996-1.072a5.98 5.98 0 0 1-2.436-3.703c-.292-1.462 0-2.924.78-4.2.78-1.462 2.24-2.436 3.8-2.73m.195 1.072c-2.34.487-4.093 2.924-3.703 5.36.195 1.267.78 2.34 1.852 3.12 1.072.975 2.73 1.267 4.2.877.877-.292 1.754-.78 2.34-1.462.877-.877 1.267-2.144 1.267-3.4-.097-1.657-1.072-3.216-2.534-3.996-1.072-.585-2.34-.682-3.4-.487zm8.976-.78c.292-.292.78-.195 1.17-.097v10.72c0 .487-.682.195-.975.292a.21.21 0 0 1-.195-.195v-10.72z" fill="#000"/><path d="M9.278.274l1.687 3.012c-3.133 1.566-5.302 4.58-5.302 8.073h20.245c0-3.494-2.17-6.507-5.302-8.073L22.293.274s.12-.12-.12-.24c-.12-.12-.24.12-.24.12l-1.807 3.012a10.96 10.96 0 0 0-4.458-.964 10.96 10.96 0 0 0-4.458.964L9.41.154s-.12-.12-.24-.12c0 .12.12.24.12.24zm1.687 5.904a1.04 1.04 0 0 1 .964.964 1.04 1.04 0 0 1-.964.964.95.95 0 0 1-.964-.964.95.95 0 0 1 .964-.964zm9.64 0a1.04 1.04 0 0 1 .964.964 1.04 1.04 0 0 1-.964.964.95.95 0 0 1-.964-.964.95.95 0 0 1 .964-.964zM5.544 12.554v15.424c0 .723.964 1.807 1.687 1.807h2.4v5.302c0 1.325.964 2.4 2.17 2.4s2.17-1.084 2.17-2.4v-5.293h3.494v5.302c0 1.325.964 2.4 2.17 2.4s2.17-1.084 2.17-2.4v-5.302h2.4c.723 0 1.687-.964 1.687-1.807V12.554zm-3.374-.35c1.205 0 2.17 1.084 2.17 2.4v9.158c0 1.325-.964 2.4-2.17 2.4S0 25.078 0 23.762v-9.148c0-1.325.964-2.4 2.17-2.4zm27.233 0c1.205 0 2.17 1.084 2.17 2.4v9.158c0 1.325-.964 2.4-2.17 2.4s-2.17-1.084-2.17-2.4v-9.148c0-1.325.964-2.4 2.17-2.4z" fill="#a4c639"/></g></symbol></svg>