<svg xmlns="http://www.w3.org/2000/svg" xmlns:xlink="http://www.w3.org/1999/xlink" viewBox="0 0 115 27" fill="#fff" fill-rule="evenodd" stroke="#000" stroke-linecap="round" stroke-linejoin="round"><use xlink:href="#A" x=".5" y=".5"/><symbol id="A" overflow="visible"><g stroke="none" fill="#47848f"><path d="M26.979 17.427h6.056c.172 0 .318-.146.318-.318s-.146-.318-.318-.318h-5.712v-3.724h5.05c.172 0 .318-.146.318-.318s-.146-.318-.318-.318h-5.05V8.787h5.645c.172 0 .318-.146.318-.318s-.146-.318-.318-.318h-6a.35.35 0 0 0-.345.345v8.587a.35.35 0 0 0 .345.345zm10.58-.345a.35.35 0 0 0 .345.345h5.526c.172 0 .318-.146.318-.318s-.146-.318-.318-.318h-5.183v-8.35a.35.35 0 0 0-.345-.345.35.35 0 0 0-.345.345zm10.592.345h6.066c.172 0 .318-.146.318-.318s-.146-.318-.318-.318h-5.712v-3.724h5.05c.172 0 .318-.146.318-.318s-.146-.318-.318-.318h-5.05V8.787h5.645c.172 0 .318-.146.318-.318s-.146-.318-.318-.318h-6a.35.35 0 0 0-.345.345v8.587a.35.35 0 0 0 .345.345zm14.78.16c1.55 0 2.57-.57 3.512-1.444.053-.053.106-.133.106-.24 0-.172-.16-.33-.33-.33-.106 0-.186.053-.24.106-.875.835-1.763 1.285-3.02 1.285-2.213 0-3.923-1.83-3.923-4.174v-.026c0-2.332 1.683-4.148 3.9-4.148 1.3 0 2.187.504 2.955 1.206.053.053.146.093.24.093.186 0 .358-.16.358-.345 0-.12-.066-.212-.133-.278-.9-.77-1.87-1.3-3.406-1.3-2.677 0-4.638 2.173-4.638 4.797v.027c0 2.664 1.96 4.77 4.612 4.77zm10.195-.45a.35.35 0 0 0 .345.345.35.35 0 0 0 .345-.345v-8.35h2.968c.172 0 .318-.146.318-.318s-.146-.318-.318-.318h-6.627c-.172 0-.318.146-.318.318s.146.318.318.318h2.968zm8.06 0a.35.35 0 0 0 .345.345.35.35 0 0 0 .345-.345v-3.552h3.035l2.85 3.7c.08.106.172.186.305.186.186 0 .358-.172.358-.358 0-.08-.04-.16-.106-.24l-2.637-3.42c1.564-.212 2.717-1.1 2.717-2.65v-.014c0-.663-.265-1.285-.702-1.723-.557-.557-1.47-.914-2.6-.914h-3.552a.35.35 0 0 0-.345.345zm.7-4.174V8.789h3.167c1.683 0 2.664.782 2.664 2.028v.026c0 1.338-1.153 2.12-2.703 2.12zm15.178 4.625c2.8 0 4.678-2.266 4.678-4.797v-.026c0-2.53-1.842-4.77-4.652-4.77s-4.68 2.264-4.68 4.794v.027c0 2.53 1.842 4.77 4.652 4.77zm.026-.623c-2.293 0-3.962-1.882-3.962-4.174v-.026c0-2.293 1.643-4.148 3.936-4.148s3.962 1.882 3.962 4.174v.027c0 2.293-1.643 4.148-3.936 4.148zm9.042.186c0 .186.146.33.33.33s.33-.146.33-.33v-8l6.374 8.084c.106.133.212.225.345.225h.053c.16 0 .278-.133.278-.292v-8.75c0-.186-.146-.33-.33-.33s-.33.146-.33.33v7.82l-6.265-7.929c-.093-.12-.2-.2-.345-.2h-.106a.35.35 0 0 0-.345.345zM8.325 5.489c-3.342-.6-5.985.028-7.038 1.853-.786 1.36-.56 3.166.545 5.096.094.164.304.22.468.127s.22-.304.127-.468c-.996-1.738-1.2-3.296-.546-4.412.875-1.515 3.232-2.084 6.322-1.52.186.034.365-.1.4-.276a.36.36 0 0 0-.276-.4zM3.57 14.782c1.35 1.485 3.107 2.878 5.1 4.034 4.85 2.8 10 3.548 12.554 1.813.156-.107.197-.32.1-.476s-.32-.197-.476-.1c-2.277 1.552-7.18.842-11.825-1.84-1.943-1.122-3.643-2.47-4.945-3.902-.127-.14-.344-.15-.484-.023s-.15.344-.023.484zm16.852-.408c2.2-2.585 2.953-5.186 1.902-7.006-.773-1.34-2.408-2.047-4.58-2.075-.2-.002-.345.15-.347.338s.15.345.338.347c1.954.025 3.363.635 3.997 1.732.873 1.512.192 3.83-1.83 6.22-.122.144-.104.36.04.483s.36.104.483-.04zm-5.625-8.762c-1.98.424-4.085 1.253-6.108 2.42-5.005 2.9-8.27 7.15-7.817 10.24.027.187.202.317.4.3s.317-.202.3-.4c-.403-2.743 2.692-6.782 7.48-9.547 1.962-1.133 4.002-1.936 5.9-2.344.185-.04.303-.222.263-.407s-.222-.303-.407-.263zM6.689 20.415c1.144 3.195 3.016 5.162 5.12 5.162 1.535 0 2.956-1.047 4.063-2.9.098-.162.045-.373-.117-.47s-.373-.045-.47.117c-.995 1.656-2.218 2.557-3.476 2.557-1.75 0-3.418-1.755-4.476-4.708-.064-.178-.26-.27-.438-.207s-.27.26-.207.438zm10.452-.626c.592-1.893.9-4.077.9-6.352 0-5.678-1.987-10.573-4.818-11.83-.173-.077-.376.001-.452.174s.001.376.174.452c2.525 1.12 4.4 5.766 4.4 11.203 0 2.208-.308 4.322-.88 6.148-.057.18.044.373.225.43s.373-.044.43-.225z"/><path d="M23.596 19.454a1.64 1.64 0 1 0-3.281 0 1.64 1.64 0 1 0 3.281 0zm-.685 0c0 .527-.428.955-.955.955s-.955-.428-.955-.955.428-.955.955-.955.955.428.955.955zm-21.27 1.641a1.64 1.64 0 1 0-1.421-.82 1.64 1.64 0 0 0 1.421.82zm0-.685c-.527 0-.955-.428-.955-.955s.428-.955.955-.955.955.428.955.955-.428.955-.955.955zM11.81 3.281a1.641 1.641 0 1 0-1.421-.82 1.64 1.64 0 0 0 1.421.82zm0-.685c-.527 0-.955-.428-.955-.955s.428-.955.955-.955.955.428.955.955-.428.955-.955.955zm.251 12.003a1.19 1.19 0 0 1-1.41-.91 1.19 1.19 0 0 1 .91-1.41 1.19 1.19 0 0 1 1.41.91 1.19 1.19 0 0 1-.91 1.41z"/></g></symbol></svg>