<svg xmlns="http://www.w3.org/2000/svg" xmlns:xlink="http://www.w3.org/1999/xlink" viewBox="0 0 232.97 52.97" fill="#fff" fill-rule="evenodd" stroke="#000" stroke-linecap="round" stroke-linejoin="round"><use xlink:href="#A" x="6.485" y="6.485"/><symbol id="A" overflow="visible"><g stroke="none"><path d="M29.254 24.733c-1.725-.039-3.074.13-4.202.61-.324.13-.843.13-.882.545.169.169.195.454.35.687a5.06 5.06 0 0 0 1.128 1.323l1.388.999c.843.519 1.79.817 2.62 1.336.48.298.947.687 1.297 1.012.233.169.389.454.688.558v-.065c-.156-.194-.195-.48-.35-.687l-.648-.623a10.25 10.25 0 0 0-2.244-2.179c-.687-.48-2.205-1.128-2.49-1.92l-.039-.039c.48-.039 1.038-.221 1.492-.35.739-.195 1.401-.156 2.166-.35l1.038-.298v-.195c-.389-.389-.674-.908-1.076-1.271a28.92 28.92 0 0 0-3.567-2.659c-.674-.428-1.53-.713-2.244-1.076-.259-.13-.687-.195-.843-.415-.389-.48-.61-1.102-.882-1.66l-1.777-3.761c-.389-.843-.623-1.686-1.103-2.464a21.79 21.79 0 0 0-8.366-8.093c-.804-.454-1.751-.649-2.763-.882l-1.621-.091c-.35-.156-.687-.558-.999-.752C4.092 1.192.914-.494.136 1.737c-.584 1.401.869 2.789 1.362 3.502.363.493.843 1.063 1.103 1.621.156.363.195.752.35 1.141l1.128 2.892a10.38 10.38 0 0 0 .804 1.336c.169.233.48.35.545.739-.298.428-.324 1.077-.493 1.621-.778 2.438-.48 5.473.623 7.263.35.545 1.297 1.725 2.27 1.271s.752-1.621 1.038-2.698c.065-.259.026-.428.156-.61v.039l.882 1.79a12.19 12.19 0 0 0 2.815 2.892c.519.389.934 1.064 1.582 1.297v-.065h-.091c-.13-.195-.324-.285-.493-.428a10.49 10.49 0 0 1-1.128-1.297c-.916-1.241-1.727-2.555-2.425-3.93-.35-.675-.649-1.401-.934-2.075-.13-.259-.13-.649-.35-.778-.324.48-.804.882-1.038 1.466-.415.934-.454 2.075-.61 3.269-.778-.13-1.012-.843-1.271-1.453-.648-1.53-.752-4.021-.194-5.772.156-.454.804-1.881.545-2.309-.13-.415-.558-.649-.804-.973A8.59 8.59 0 0 1 4.73 10.1L3.405 6.341c-.259-.571-.713-1.141-1.09-1.66-.389-.597-.856-1.012-1.167-1.686-.13-.259-.259-.648-.091-.908.039-.169.13-.234.298-.285.285-.234 1.077.065 1.362.195a11.02 11.02 0 0 1 2.14 1.077c.298.22.623.623 1.012.739h.454c.687.156 1.466.039 2.114.233 1.141.363 2.179.908 3.113 1.492 2.862 1.825 5.19 4.376 6.744 7.393.259.493.363.947.61 1.466l1.466 3.178c.454 1.012.882 2.049 1.531 2.892.324.454 1.621.687 2.205.934.428.195 1.102.363 1.492.61l2.166 1.466c.35.259 1.297.804 1.492 1.232zM7.205 5.939a3.42 3.42 0 0 0-.882.104v.039h.039c.169.35.48.584.687.882l.493 1.038.039-.039c.298-.221.454-.558.454-1.077-.13-.156-.156-.298-.259-.454-.13-.22-.415-.324-.584-.493z" fill="#00678c"/><path d="M121.912 30.362h18.599c2.179 0 4.254-.441 5.94-1.232 2.815-1.297 4.15-3.022 4.15-5.292v-4.76c0-1.816-1.53-3.567-4.591-4.747-1.761-.625-3.617-.941-5.486-.934h-7.808c-2.62 0-3.852-.778-4.202-2.516-.052-.194-.052-.389-.052-.597V7.366c0-.156 0-.35.052-.545.35-1.336 1.038-1.686 3.32-1.945h19.04V.57h-18.119c-2.62 0-3.891.156-5.24.545-3.813 1.167-5.486 3.061-5.486 6.381v3.761c0 2.918 3.269 5.395 8.82 5.966.597.052 1.232.052 1.881.052h6.68c.259 0 .493 0 .688.052 2.023.194 2.918.545 3.502 1.297a1.51 1.51 0 0 1 .493 1.193v3.761c0 .441-.298 1.038-.908 1.53s-1.53.843-2.776.908c-.259 0-.389.052-.649.052h-17.847zm68.936-7.471c0 4.41 3.32 6.874 9.948 7.367l1.881.104h16.809v-4.28h-16.952c-3.891 0-5.188-.934-5.188-3.217V.596h-6.485v22.309zm-36.148.195V7.781c0-3.891 2.763-6.278 8.171-7.004l1.725-.104h12.27c.648 0 1.193.052 1.816.104 5.396.739 8.106 3.113 8.106 7.004v15.318c0 3.165-1.141 4.851-3.813 5.966l6.329 5.733h-7.471l-5.149-4.643-5.188.298h-6.926c-1.141 0-2.426-.13-3.891-.493-4.099-1.141-6.135-3.32-6.135-6.874zm6.978-.337c0 .195.104.389.156.649.35 1.777 2.023 2.763 4.591 2.763h5.837l-5.344-4.851h7.471l4.695 4.254c.908-.493 1.297-1.193 1.634-2.075.052-.195.052-.441.052-.648V8.184c0-.195 0-.389-.052-.597-.35-1.686-2.023-2.62-4.54-2.62h-9.728c-2.853 0-4.747 1.232-4.747 3.217z" fill="#ce8b2c"/><path d="M36.063 30.388h6.433V4.915l10.039 22.205c1.141 2.672 2.776 3.658 5.94 3.658s4.695-.986 5.888-3.658l9.987-22.205v25.473h6.485V4.915c0-2.464-.986-3.658-3.061-4.306-4.89-1.479-8.171-.195-9.65 3.113L58.268 25.68 48.774 3.721C47.477.414 44.027-.87 39.085.609c-2.023.648-3.022 1.816-3.022 4.306v25.473zM86.167 9.662h6.485v14.008c-.052.778.259 2.568 3.891 2.62h13.904V9.558h6.485v22.879c0 5.642-6.978 6.874-10.376 6.926H86.322v-4.306h20.428c4.151-.441 3.658-2.516 3.658-3.217v-1.686H96.698c-6.381-.052-10.48-2.853-10.532-6.096V9.662z" fill="#00678c"/></g></symbol></svg>